<svg width="70" height="70" viewBox="0 0 70 70" fill="none" xmlns="http://www.w3.org/2000/svg">
<rect width="70" height="70" rx="10" fill="#B8C3BD"/>
<rect x="8" y="9" width="54.1224" height="52" rx="4" fill="#434952"/>
<path d="M31.5486 47L30.4766 39.544L29.9486 25.16H28.5406L28.0286 39.544L27.7246 41.848H24.0286L24.1566 32.584L26.0446 21.56H32.4126L34.3166 32.584L34.4926 43.256H39.5646L39.1966 47H31.5486ZM19.1486 47L16.9086 21.4H21.1486L21.9326 32.584L22.4606 43.256H27.4206L26.8286 47H19.1486ZM36.0286 41.848L36.5726 32.584L37.3406 21.4H41.5966L39.6766 41.848H36.0286ZM44.0394 47V21.4H48.2794V47H44.0394ZM50.2794 47V43.256H54.4874V47H50.2794Z" fill="#B8C3BD"/>
</svg>
